<svg width="50" height="38" viewBox="0 0 50 38" fill="none" xmlns="http://www.w3.org/2000/svg">
<path fill-rule="evenodd" clip-rule="evenodd" d="M29.732 35.3647C29.1433 35.9476 29.1386 36.8973 29.7215 37.486C30.3044 38.0747 31.2541 38.0795 31.8428 37.4967L49.0217 20.4881C49.2393 20.2775 49.3932 20.0016 49.452 19.6922C49.47 19.5986 49.4791 19.5028 49.4788 19.4061C49.4778 19.0044 49.3158 18.6198 49.0289 18.3386L31.7523 1.40156C31.1607 0.821595 30.211 0.830984 29.6311 1.42254C29.0511 2.01409 29.0606 2.96378 29.6522 3.54375L44.3158 17.9191L2.01723 18.0221C1.18881 18.0241 0.518918 18.6973 0.520996 19.5258C0.523075 20.3542 1.19633 21.0241 2.02475 21.0221L44.3223 20.9191L29.732 35.3647Z" fill="#3A4A2D"/>
</svg>
