<?xml version="1.0" encoding="UTF-8" standalone="no" ?>
<!DOCTYPE svg PUBLIC "-//W3C//DTD SVG 1.1//EN" "http://www.w3.org/Graphics/SVG/1.1/DTD/svg11.dtd">
<svg xmlns="http://www.w3.org/2000/svg" xmlns:xlink="http://www.w3.org/1999/xlink" version="1.1" width="37.95802590345011" height="49.95781600428904" viewBox="221.6390885935288 205.1535423289813 37.95802590345011 49.95781600428904" xml:space="preserve">
<desc>Created with Fabric.js 4.6.0</desc>
<defs>
</defs>
<g transform="matrix(0 -1 1 0 240.62 230.13)" id="1GixHOl5HkolcwRhscuHs"  >
<path style="stroke: none; stroke-width: 1; stroke-dasharray: none; stroke-linecap: butt; stroke-dashoffset: 0; stroke-linejoin: miter; stroke-miterlimit: 4; fill: rgb(58,74,45); fill-rule: evenodd; opacity: 1;" vector-effect="non-scaling-stroke"  transform=" translate(-25, -19.45)" d="M 29.732 35.3647 C 29.1433 35.9476 29.1386 36.8973 29.7215 37.486 C 30.3044 38.0747 31.2541 38.0795 31.8428 37.4967 L 49.0217 20.4881 C 49.2393 20.2775 49.3932 20.0016 49.452 19.6922 C 49.47 19.5986 49.4791 19.5028 49.4788 19.4061 C 49.4778 19.0044 49.3158 18.6198 49.0289 18.3386 L 31.7523 1.40156 C 31.1607 0.821595 30.211 0.830984 29.6311 1.42254 C 29.0511 2.01409 29.0606 2.96378 29.6522 3.54375 L 44.3158 17.9191 L 2.01723 18.0221 C 1.18881 18.0241 0.518918 18.6973 0.520996 19.5258 C 0.523075 20.3542 1.19633 21.0241 2.02475 21.0221 L 44.3223 20.9191 L 29.732 35.3647 Z" stroke-linecap="round" />
</g>
</svg>